<?xml version="1.0" encoding="utf-8"?>
<!-- Generator: Adobe Illustrator 24.2.0, SVG Export Plug-In . SVG Version: 6.00 Build 0)  -->
<svg version="1.1" id="Layer_1" xmlns="http://www.w3.org/2000/svg" xmlns:xlink="http://www.w3.org/1999/xlink" x="0px" y="0px"
	 viewBox="0 0 511.48 257.68" style="enable-background:new 0 0 511.48 257.68;" xml:space="preserve">
<style type="text/css">
	.st0{fill:#FFFFFF;}
	.st1{fill:#B2B2B2;}
</style>
<g>
	<g>
		<path class="st0" d="M131.5,249.61l-2.53,7.67h-3.26L134,232.9h3.8l8.32,24.39h-3.36l-2.6-7.67H131.5z M139.5,247.16l-2.42-7.02
			c-0.51-1.59-0.87-3.04-1.23-4.45h-0.11c-0.33,1.41-0.72,2.93-1.2,4.41l-2.39,7.06H139.5z"/>
		<path class="st0" d="M149.38,239.77l3.44,9.81c0.58,1.63,1.05,3.08,1.41,4.52h0.11c0.4-1.45,0.9-2.89,1.48-4.52l3.4-9.81h3.33
			l-6.88,17.51h-3.04l-6.65-17.51H149.38z"/>
		<path class="st0" d="M177.2,253.09c0,1.52,0.07,3,0.26,4.19h-2.86l-0.29-2.21h-0.11c-0.94,1.38-2.86,2.6-5.35,2.6
			c-3.55,0-5.35-2.5-5.35-5.03c0-4.24,3.76-6.55,10.53-6.51v-0.36c0-1.45-0.4-4.09-3.98-4.05c-1.67,0-3.36,0.47-4.6,1.3l-0.73-2.14
			c1.45-0.9,3.58-1.52,5.79-1.52c5.39,0,6.69,3.65,6.69,7.17V253.09z M174.09,248.35c-3.47-0.07-7.41,0.54-7.41,3.95
			c0,2.1,1.37,3.04,2.96,3.04c2.32,0,3.8-1.45,4.31-2.93c0.11-0.33,0.14-0.69,0.14-1.01V248.35z"/>
		<path class="st0" d="M183.64,236.55c-1.19,0-1.99-0.94-1.99-2.06c0-1.12,0.83-2.02,2.06-2.02c1.23,0,2.03,0.9,2.03,2.02
			c0,1.12-0.8,2.06-2.06,2.06H183.64z M182.12,257.28v-17.51h3.18v17.51H182.12z"/>
		<path class="st0" d="M190.4,231.6h3.18v25.69h-3.18V231.6z"/>
		<path class="st0" d="M211.02,253.09c0,1.52,0.07,3,0.25,4.19h-2.86l-0.29-2.21h-0.11c-0.94,1.38-2.86,2.6-5.36,2.6
			c-3.54,0-5.35-2.5-5.35-5.03c0-4.24,3.76-6.55,10.53-6.51v-0.36c0-1.45-0.4-4.09-3.98-4.05c-1.66,0-3.36,0.47-4.59,1.3l-0.73-2.14
			c1.45-0.9,3.58-1.52,5.79-1.52c5.39,0,6.69,3.65,6.69,7.17V253.09z M207.91,248.35c-3.47-0.07-7.42,0.54-7.42,3.95
			c0,2.1,1.38,3.04,2.97,3.04c2.32,0,3.8-1.45,4.31-2.93c0.11-0.33,0.15-0.69,0.15-1.01V248.35z"/>
		<path class="st0" d="M215.94,231.6h3.18v10.96h0.07c1.12-1.95,3.14-3.18,5.97-3.18c4.34,0,7.38,3.62,7.38,8.9
			c0,6.29-3.98,9.41-7.89,9.41c-2.53,0-4.52-0.98-5.86-3.29h-0.08l-0.18,2.89h-2.75c0.11-1.2,0.14-2.97,0.14-4.52V231.6z
			 M219.12,250.27c0,0.39,0.04,0.79,0.11,1.16c0.61,2.21,2.5,3.73,4.77,3.73c3.37,0,5.32-2.71,5.32-6.73c0-3.54-1.81-6.54-5.21-6.54
			c-2.17,0-4.2,1.52-4.81,3.9c-0.11,0.4-0.18,0.83-0.18,1.34V250.27z"/>
		<path class="st0" d="M236.34,231.6h3.18v25.69h-3.18V231.6z"/>
		<path class="st0" d="M246.44,249.07c0.07,4.31,2.78,6.08,5.97,6.08c2.28,0,3.69-0.4,4.85-0.87l0.58,2.24
			c-1.12,0.51-3.07,1.12-5.86,1.12c-5.35,0-8.61-3.58-8.61-8.83c0-5.32,3.15-9.48,8.25-9.48c5.71,0,7.2,5.03,7.2,8.25
			c0,0.65-0.04,1.16-0.11,1.52L246.44,249.07z M255.73,246.79c0.04-1.99-0.83-5.18-4.38-5.18c-3.25,0-4.63,2.97-4.88,5.18H255.73z"
			/>
		<path class="st0" d="M277.19,257.68c-4.7,0-8.39-3.47-8.39-9.01c0-5.86,3.87-9.3,8.68-9.3c5.03,0,8.43,3.65,8.43,8.97
			c0,6.51-4.52,9.34-8.68,9.34H277.19z M277.29,255.29c3.04,0,5.32-2.86,5.32-6.84c0-2.97-1.48-6.69-5.24-6.69
			c-3.73,0-5.35,3.47-5.35,6.8c0,3.84,2.17,6.73,5.25,6.73H277.29z"/>
		<path class="st0" d="M289.74,244.51c0-1.85-0.04-3.29-0.15-4.74h2.82l0.18,2.86h0.07c0.87-1.63,2.89-3.25,5.79-3.25
			c2.42,0,6.19,1.45,6.19,7.45v10.45h-3.19v-10.1c0-2.82-1.05-5.21-4.05-5.21c-2.06,0-3.69,1.48-4.27,3.26
			c-0.14,0.4-0.22,0.98-0.22,1.49v10.56h-3.18V244.51z"/>
		<path class="st0" d="M320.96,235.58v4.19h4.55v2.42h-4.55v9.44c0,2.17,0.62,3.4,2.38,3.4c0.87,0,1.38-0.07,1.85-0.22l0.14,2.42
			c-0.61,0.22-1.59,0.43-2.82,0.43c-1.49,0-2.68-0.51-3.44-1.34c-0.87-0.98-1.23-2.54-1.23-4.6v-9.55h-2.71v-2.42h2.71v-3.22
			L320.96,235.58z"/>
		<path class="st0" d="M328.92,231.6h3.18v10.92h0.07c0.51-0.91,1.3-1.73,2.28-2.24c0.94-0.58,2.06-0.91,3.26-0.91
			c2.35,0,6.11,1.45,6.11,7.49v10.42h-3.18v-10.06c0-2.86-1.05-5.21-4.05-5.21c-2.06,0-3.65,1.45-4.27,3.18
			c-0.18,0.43-0.22,0.91-0.22,1.52v10.56h-3.18V231.6z"/>
		<path class="st0" d="M350.62,249.07c0.07,4.31,2.79,6.08,5.97,6.08c2.28,0,3.69-0.4,4.85-0.87l0.58,2.24
			c-1.12,0.51-3.08,1.12-5.86,1.12c-5.35,0-8.61-3.58-8.61-8.83c0-5.32,3.15-9.48,8.25-9.48c5.71,0,7.2,5.03,7.2,8.25
			c0,0.65-0.04,1.16-0.11,1.52L350.62,249.07z M359.92,246.79c0.03-1.99-0.83-5.18-4.38-5.18c-3.25,0-4.63,2.97-4.88,5.18H359.92z"
			/>
		<path class="st0" d="M375.77,236.55c-1.2,0-1.99-0.94-1.99-2.06c0-1.12,0.83-2.02,2.06-2.02c1.23,0,2.03,0.9,2.03,2.02
			c0,1.12-0.8,2.06-2.07,2.06H375.77z M374.24,257.28v-17.51h3.18v17.51H374.24z"/>
		<path class="st0" d="M382.63,233.22c1.52-0.29,3.51-0.51,6.04-0.51c3.11,0,5.39,0.72,6.83,2.03c1.34,1.16,2.17,2.93,2.17,5.1
			c0,2.21-0.65,3.94-1.92,5.21c-1.66,1.78-4.38,2.68-7.45,2.68c-0.94,0-1.81-0.04-2.53-0.21v9.77h-3.15V233.22z M385.78,244.95
			c0.69,0.18,1.59,0.25,2.61,0.25c3.83,0,6.11-1.88,6.11-5.17c0-3.26-2.28-4.81-5.75-4.81c-1.37,0-2.42,0.14-2.97,0.25V244.95z"/>
		<path class="st0" d="M401.41,231.6h3.19v10.92h0.07c0.51-0.91,1.3-1.73,2.28-2.24c0.94-0.58,2.07-0.91,3.26-0.91
			c2.35,0,6.11,1.45,6.11,7.49v10.42h-3.18v-10.06c0-2.86-1.05-5.21-4.05-5.21c-2.06,0-3.65,1.45-4.27,3.18
			c-0.18,0.43-0.22,0.91-0.22,1.52v10.56h-3.19V231.6z"/>
		<path class="st0" d="M428.44,257.68c-4.7,0-8.39-3.47-8.39-9.01c0-5.86,3.87-9.3,8.69-9.3c5.03,0,8.43,3.65,8.43,8.97
			c0,6.51-4.52,9.34-8.68,9.34H428.44z M428.55,255.29c3.03,0,5.32-2.86,5.32-6.84c0-2.97-1.48-6.69-5.25-6.69
			c-3.72,0-5.36,3.47-5.36,6.8c0,3.84,2.17,6.73,5.25,6.73H428.55z"/>
		<path class="st0" d="M440.99,244.51c0-1.85-0.04-3.29-0.14-4.74h2.82l0.18,2.86h0.07c0.87-1.63,2.89-3.25,5.79-3.25
			c2.42,0,6.18,1.45,6.18,7.45v10.45h-3.18v-10.1c0-2.82-1.05-5.21-4.05-5.21c-2.06,0-3.69,1.48-4.27,3.26
			c-0.15,0.4-0.22,0.98-0.22,1.49v10.56h-3.18V244.51z"/>
		<path class="st0" d="M462.69,249.07c0.07,4.31,2.79,6.08,5.97,6.08c2.28,0,3.69-0.4,4.85-0.87l0.58,2.24
			c-1.13,0.51-3.08,1.12-5.86,1.12c-5.35,0-8.61-3.58-8.61-8.83c0-5.32,3.15-9.48,8.25-9.48c5.72,0,7.2,5.03,7.2,8.25
			c0,0.65-0.04,1.16-0.11,1.52L462.69,249.07z M471.99,246.79c0.04-1.99-0.83-5.18-4.38-5.18c-3.26,0-4.63,2.97-4.88,5.18H471.99z"
			/>
	</g>
</g>
<g>
	<path class="st1" d="M511.48,144.7c0,12.49-10.12,22.61-22.61,22.61H22.61C10.12,167.31,0,157.19,0,144.7V22.61
		C0,10.12,10.12,0,22.61,0h466.26c12.48,0,22.61,10.12,22.61,22.61V144.7z"/>
	<g>
		<path class="st0" d="M131.5,45.06l-2.53,7.67h-3.26L134,28.35h3.8l8.32,24.39h-3.36l-2.6-7.67H131.5z M139.5,42.61l-2.42-7.02
			c-0.51-1.59-0.87-3.04-1.23-4.45h-0.11c-0.33,1.41-0.72,2.93-1.2,4.41l-2.39,7.06H139.5z"/>
		<path class="st0" d="M149.38,35.22l3.44,9.81c0.58,1.63,1.05,3.08,1.41,4.52h0.11c0.4-1.45,0.9-2.89,1.48-4.52l3.4-9.81h3.33
			l-6.88,17.51h-3.04l-6.65-17.51H149.38z"/>
		<path class="st0" d="M177.2,48.54c0,1.52,0.07,3,0.26,4.19h-2.86l-0.29-2.21h-0.11c-0.94,1.38-2.86,2.6-5.35,2.6
			c-3.55,0-5.35-2.5-5.35-5.03c0-4.23,3.76-6.55,10.53-6.51v-0.36c0-1.45-0.4-4.09-3.98-4.05c-1.67,0-3.36,0.47-4.6,1.3l-0.73-2.14
			c1.45-0.9,3.58-1.52,5.79-1.52c5.39,0,6.69,3.65,6.69,7.16V48.54z M174.09,43.8c-3.47-0.07-7.41,0.54-7.41,3.94
			c0,2.1,1.37,3.04,2.96,3.04c2.32,0,3.8-1.45,4.31-2.93c0.11-0.33,0.14-0.69,0.14-1.01V43.8z"/>
		<path class="st0" d="M183.64,32c-1.19,0-1.99-0.94-1.99-2.06c0-1.12,0.83-2.02,2.06-2.02c1.23,0,2.03,0.9,2.03,2.02
			c0,1.12-0.8,2.06-2.06,2.06H183.64z M182.12,52.73V35.22h3.18v17.51H182.12z"/>
		<path class="st0" d="M190.4,27.05h3.18v25.69h-3.18V27.05z"/>
		<path class="st0" d="M211.02,48.54c0,1.52,0.07,3,0.25,4.19h-2.86l-0.29-2.21h-0.11c-0.94,1.38-2.86,2.6-5.36,2.6
			c-3.54,0-5.35-2.5-5.35-5.03c0-4.23,3.76-6.55,10.53-6.51v-0.36c0-1.45-0.4-4.09-3.98-4.05c-1.66,0-3.36,0.47-4.59,1.3l-0.73-2.14
			c1.45-0.9,3.58-1.52,5.79-1.52c5.39,0,6.69,3.65,6.69,7.16V48.54z M207.91,43.8c-3.47-0.07-7.42,0.54-7.42,3.94
			c0,2.1,1.38,3.04,2.97,3.04c2.32,0,3.8-1.45,4.31-2.93c0.11-0.33,0.15-0.69,0.15-1.01V43.8z"/>
		<path class="st0" d="M215.94,27.05h3.18v10.96h0.07c1.12-1.95,3.14-3.18,5.97-3.18c4.34,0,7.38,3.62,7.38,8.9
			c0,6.29-3.98,9.41-7.89,9.41c-2.53,0-4.52-0.98-5.86-3.29h-0.08l-0.18,2.89h-2.75c0.11-1.2,0.14-2.97,0.14-4.52V27.05z
			 M219.12,45.72c0,0.39,0.04,0.79,0.11,1.16c0.61,2.21,2.5,3.73,4.77,3.73c3.37,0,5.32-2.71,5.32-6.73c0-3.55-1.81-6.55-5.21-6.55
			c-2.17,0-4.2,1.52-4.81,3.9c-0.11,0.4-0.18,0.83-0.18,1.34V45.72z"/>
		<path class="st0" d="M236.34,27.05h3.18v25.69h-3.18V27.05z"/>
		<path class="st0" d="M246.44,44.52c0.07,4.31,2.78,6.08,5.97,6.08c2.28,0,3.69-0.4,4.85-0.87l0.58,2.24
			c-1.12,0.51-3.07,1.12-5.86,1.12c-5.35,0-8.61-3.58-8.61-8.83c0-5.32,3.15-9.48,8.25-9.48c5.71,0,7.2,5.03,7.2,8.25
			c0,0.65-0.04,1.16-0.11,1.52L246.44,44.52z M255.73,42.24c0.04-1.99-0.83-5.18-4.38-5.18c-3.25,0-4.63,2.97-4.88,5.18H255.73z"/>
		<path class="st0" d="M277.19,53.13c-4.7,0-8.39-3.47-8.39-9.01c0-5.86,3.87-9.3,8.68-9.3c5.03,0,8.43,3.65,8.43,8.97
			c0,6.51-4.52,9.33-8.68,9.33H277.19z M277.29,50.75c3.04,0,5.32-2.86,5.32-6.84c0-2.97-1.48-6.69-5.24-6.69
			c-3.73,0-5.35,3.47-5.35,6.8c0,3.84,2.17,6.73,5.25,6.73H277.29z"/>
		<path class="st0" d="M289.74,39.97c0-1.85-0.04-3.29-0.15-4.74h2.82l0.18,2.86h0.07c0.87-1.63,2.89-3.26,5.79-3.26
			c2.42,0,6.19,1.45,6.19,7.45v10.45h-3.19v-10.1c0-2.82-1.05-5.21-4.05-5.21c-2.06,0-3.69,1.49-4.27,3.26
			c-0.14,0.4-0.22,0.98-0.22,1.48v10.56h-3.18V39.97z"/>
		<path class="st0" d="M320.96,31.03v4.19h4.55v2.42h-4.55v9.44c0,2.17,0.62,3.4,2.38,3.4c0.87,0,1.38-0.07,1.85-0.22l0.14,2.42
			c-0.61,0.22-1.59,0.44-2.82,0.44c-1.49,0-2.68-0.51-3.44-1.34c-0.87-0.98-1.23-2.54-1.23-4.6v-9.55h-2.71v-2.42h2.71V32
			L320.96,31.03z"/>
		<path class="st0" d="M328.92,27.05h3.18v10.92h0.07c0.51-0.91,1.3-1.73,2.28-2.24c0.94-0.58,2.06-0.91,3.26-0.91
			c2.35,0,6.11,1.45,6.11,7.49v10.42h-3.18V42.68c0-2.86-1.05-5.21-4.05-5.21c-2.06,0-3.65,1.45-4.27,3.18
			c-0.18,0.43-0.22,0.91-0.22,1.52v10.56h-3.18V27.05z"/>
		<path class="st0" d="M350.62,44.52c0.07,4.31,2.79,6.08,5.97,6.08c2.28,0,3.69-0.4,4.85-0.87l0.58,2.24
			c-1.12,0.51-3.08,1.12-5.86,1.12c-5.35,0-8.61-3.58-8.61-8.83c0-5.32,3.15-9.48,8.25-9.48c5.71,0,7.2,5.03,7.2,8.25
			c0,0.65-0.04,1.16-0.11,1.52L350.62,44.52z M359.92,42.24c0.03-1.99-0.83-5.18-4.38-5.18c-3.25,0-4.63,2.97-4.88,5.18H359.92z"/>
		<path class="st0" d="M375.77,32c-1.2,0-1.99-0.94-1.99-2.06c0-1.12,0.83-2.02,2.06-2.02c1.23,0,2.03,0.9,2.03,2.02
			c0,1.12-0.8,2.06-2.07,2.06H375.77z M374.24,52.73V35.22h3.18v17.51H374.24z"/>
		<path class="st0" d="M382.63,28.67c1.52-0.29,3.51-0.51,6.04-0.51c3.11,0,5.39,0.72,6.83,2.03c1.34,1.15,2.17,2.93,2.17,5.1
			c0,2.21-0.65,3.94-1.92,5.21c-1.66,1.77-4.38,2.68-7.45,2.68c-0.94,0-1.81-0.04-2.53-0.21v9.77h-3.15V28.67z M385.78,40.4
			c0.69,0.18,1.59,0.25,2.61,0.25c3.83,0,6.11-1.88,6.11-5.17c0-3.26-2.28-4.81-5.75-4.81c-1.37,0-2.42,0.14-2.97,0.25V40.4z"/>
		<path class="st0" d="M401.41,27.05h3.19v10.92h0.07c0.51-0.91,1.3-1.73,2.28-2.24c0.94-0.58,2.07-0.91,3.26-0.91
			c2.35,0,6.11,1.45,6.11,7.49v10.42h-3.18V42.68c0-2.86-1.05-5.21-4.05-5.21c-2.06,0-3.65,1.45-4.27,3.18
			c-0.18,0.43-0.22,0.91-0.22,1.52v10.56h-3.19V27.05z"/>
		<path class="st0" d="M428.44,53.13c-4.7,0-8.39-3.47-8.39-9.01c0-5.86,3.87-9.3,8.69-9.3c5.03,0,8.43,3.65,8.43,8.97
			c0,6.51-4.52,9.33-8.68,9.33H428.44z M428.55,50.75c3.03,0,5.32-2.86,5.32-6.84c0-2.97-1.48-6.69-5.25-6.69
			c-3.72,0-5.36,3.47-5.36,6.8c0,3.84,2.17,6.73,5.25,6.73H428.55z"/>
		<path class="st0" d="M440.99,39.97c0-1.85-0.04-3.29-0.14-4.74h2.82l0.18,2.86h0.07c0.87-1.63,2.89-3.26,5.79-3.26
			c2.42,0,6.18,1.45,6.18,7.45v10.45h-3.18v-10.1c0-2.82-1.05-5.21-4.05-5.21c-2.06,0-3.69,1.49-4.27,3.26
			c-0.15,0.4-0.22,0.98-0.22,1.48v10.56h-3.18V39.97z"/>
		<path class="st0" d="M462.69,44.52c0.07,4.31,2.79,6.08,5.97,6.08c2.28,0,3.69-0.4,4.85-0.87l0.58,2.24
			c-1.13,0.51-3.08,1.12-5.86,1.12c-5.35,0-8.61-3.58-8.61-8.83c0-5.32,3.15-9.48,8.25-9.48c5.72,0,7.2,5.03,7.2,8.25
			c0,0.65-0.04,1.16-0.11,1.52L462.69,44.52z M471.99,42.24c0.04-1.99-0.83-5.18-4.38-5.18c-3.26,0-4.63,2.97-4.88,5.18H471.99z"/>
	</g>
	<g>
		<path class="st0" d="M146.49,69.25l-21.45,63.14h9.82l6.4-19.39h20.77l6.59,19.39h10.09l-21.54-63.14H146.49z M151.58,79.63
			c0.72,2.82,1.51,5.75,2.51,8.91l5.78,16.74h-16.45l5.7-16.85C149.99,85.7,150.81,82.75,151.58,79.63z"/>
		<path class="st0" d="M206.48,85.62c-6.51,0-11.72,2.51-15.19,7.29l-0.38-6.28h-8.74l0.05,0.8c0.26,3.91,0.37,8.22,0.37,14.4v48.67
			h9.55v-22.71c2.96,3.55,7.7,5.61,13.06,5.61c5.58,0,10.73-2.19,14.48-6.15c4.18-4.42,6.39-10.78,6.39-18.38
			c0-6.71-1.92-12.52-5.55-16.78C216.96,87.92,211.98,85.62,206.48,85.62z M204.1,93.53c8.52,0,12.33,7.89,12.33,15.71
			c0,10.08-4.86,16.35-12.69,16.35c-5.34,0-9.97-3.64-11.25-8.86c-0.22-0.81-0.34-1.88-0.34-3.09v-7.68c0-0.7,0.16-1.54,0.31-2.36
			c0.05-0.26,0.1-0.52,0.14-0.78C194.01,97.34,198.74,93.53,204.1,93.53z"/>
		<path class="st0" d="M255.67,85.62c-6.51,0-11.72,2.51-15.19,7.29l-0.38-6.28h-8.74l0.05,0.8c0.26,3.92,0.37,8.22,0.37,14.4v48.67
			h9.56v-22.71c2.96,3.55,7.69,5.61,13.05,5.61c5.59,0,10.73-2.19,14.48-6.15c4.18-4.42,6.39-10.78,6.39-18.38
			c0-6.71-1.92-12.52-5.55-16.78C266.16,87.92,261.17,85.62,255.67,85.62z M253.3,93.53c8.51,0,12.32,7.89,12.32,15.71
			c0,10.08-4.87,16.35-12.69,16.35c-5.34,0-9.97-3.64-11.25-8.86c-0.22-0.81-0.34-1.88-0.34-3.09v-7.68c0-0.7,0.15-1.55,0.3-2.37
			c0.05-0.26,0.09-0.51,0.14-0.77C243.2,97.34,247.93,93.53,253.3,93.53z"/>
		<path class="st0" d="M317.3,96.01c-8.92-3.45-11.77-6.17-11.77-11.19c0-4.22,3.36-8.48,10.86-8.48c6.19,0,10.15,2.15,11.21,2.81
			l0.81,0.5l2.7-7.97l-0.53-0.31c-1.6-0.94-6.16-3.12-13.91-3.12c-12.18,0-20.69,7.19-20.69,17.49c0,8.3,5.33,14.1,16.77,18.26
			c8.11,3.03,11.12,6.14,11.12,11.46c0,6.02-4.65,9.76-12.14,9.76c-4.88,0-9.9-1.42-13.77-3.9l-0.83-0.53l-2.56,8.16l0.47,0.31
			c3.61,2.41,10.39,4.15,16.14,4.15c16.42,0,22.24-10.01,22.24-18.59C333.42,105.97,328.75,100.52,317.3,96.01z"/>
		<path class="st0" d="M350.62,75.75l-9.37,2.94v7.94h-6.86v7.64h6.86v23.39c0,5.65,1.08,9.62,3.31,12.12
			c2.13,2.34,5.42,3.63,9.24,3.63c3.61,0,6.18-0.71,7.38-1.14l0.54-0.19l-0.46-7.65l-0.92,0.28c-1.21,0.37-2.45,0.51-4.44,0.51
			c-3.7,0-5.28-2.34-5.28-7.84V94.26h11.52v-7.64h-11.52V75.75z"/>
		<path class="st0" d="M385.82,85.62c-13.37,0-22.7,9.98-22.7,24.25c0,13.85,9.03,23.52,21.97,23.52h0.09
			c10.94,0,22.7-7.62,22.7-24.35c0-6.8-2.1-12.65-6.09-16.9C397.78,87.88,392.26,85.62,385.82,85.62z M385.54,93.16
			c8.6,0,12.51,8.38,12.51,16.17c0,9.58-5.34,16.53-12.69,16.53h-0.09c-7.25,0-12.51-6.83-12.51-16.25
			C372.76,101.42,376.71,93.16,385.54,93.16z"/>
		<path class="st0" d="M437.14,86.06l-0.57-0.14c-0.84-0.21-1.53-0.3-2.38-0.3c-5,0-9.48,2.94-11.98,7.69l-0.28-6.69h-8.57l0.05,0.8
			c0.25,3.78,0.36,8.03,0.36,13.76l-0.09,31.21h9.55v-24.35c0-1.33,0.09-2.58,0.26-3.7c1.08-5.85,5.03-9.63,10.05-9.63
			c0.98,0,1.75,0.08,2.56,0.16l1.02,0.11V86.06z"/>
		<path class="st0" d="M458.62,85.53c-12.72,0-21.6,10.16-21.6,24.71c0,14.01,8.84,23.07,22.52,23.07c7.19,0,12.2-1.58,15.13-2.9
			l0.57-0.26l-1.83-7.12l-0.8,0.32c-2.6,1.06-6.06,2.14-11.97,2.14c-4.15,0-13.72-1.37-14.31-13.85l30.84,0.09l0.12-0.61
			c0.2-0.97,0.29-2.28,0.29-3.99C477.57,97.17,472.6,85.53,458.62,85.53z M457.98,92.8c2.91,0,5.27,0.9,7.01,2.68
			c2.75,2.8,3.23,6.92,3.29,8.89H446.5C447.38,98.85,450.83,92.8,457.98,92.8z"/>
	</g>
	<g>
		<g>
			<path class="st0" d="M109.92,113.27c-2.49,5.51-3.68,7.97-6.87,12.84c-4.47,6.8-10.76,15.26-18.56,15.33
				c-6.93,0.06-8.71-4.51-18.11-4.46c-9.4,0.05-11.37,4.54-18.3,4.47c-7.8-0.07-13.76-7.72-18.23-14.51
				c-12.49-19.01-13.79-41.31-6.09-53.17c5.47-8.43,14.1-13.36,22.22-13.36c8.26,0,13.46,4.53,20.29,4.53
				c6.63,0,10.67-4.54,20.22-4.54c7.22,0,14.87,3.93,20.33,10.73C88.96,80.93,91.86,106.45,109.92,113.27z"/>
			<g>
				<path class="st0" d="M79.25,52.81c3.47-4.46,6.11-10.75,5.15-17.18c-5.67,0.39-12.3,4-16.18,8.7
					c-3.52,4.27-6.42,10.6-5.29,16.76C69.13,61.28,75.53,57.58,79.25,52.81z"/>
			</g>
		</g>
	</g>
</g>
</svg>
